<svg xmlns="http://www.w3.org/2000/svg" width="240" height="240" viewBox="0 0 24 24" class="signing-illustration">
	<!-- Tablet Device -->
	<rect x="5" y="4" width="14" height="18" rx="1.5" fill="#f8fafc" stroke="#e2e8f0" stroke-width="0.8"/>

	<!-- Screen Content -->
	<rect x="6" y="5" width="12" height="16" rx="1" fill="white" stroke="#f1f5f9" stroke-width="0.5"/>

	<!-- Document -->
	<rect x="7" y="6" width="10" height="14" rx="0.5" fill="#f9fafb" stroke="#e5e7eb" stroke-width="0.3"/>
	<line x1="7" y1="8" x2="17" y2="8" stroke="#e5e7eb" stroke-width="0.3"/>
	<line x1="7" y1="10" x2="14" y2="10" stroke="#e5e7eb" stroke-width="0.3"/>

	<!-- Signature Area -->
	<rect x="7" y="12" width="10" height="4" fill="#fef2f2" stroke="#fee2e2" stroke-width="0.3" rx="0.3"/>
	<path d="M8 14h8" stroke="#ef4444" stroke-width="1.2" stroke-dasharray="3 1" stroke-linecap="round"/>

	<!-- Signing Hand -->
	<g class="signing-hand">
		<!-- Arm -->
		<path d="M18 12l2-2" stroke="#f5f5f5" stroke-width="1.5" stroke-linecap="round"/>

		<!-- Hand -->
		<path d="M20 10l1-1c1.5 1.5 0 4-2 4l-1 1"
              fill="#ffdbac"
              stroke="#e5ac7a"
              stroke-width="0.5"/>

		<!-- Pen -->
		<line x1="20" y1="10" x2="16" y2="14" stroke="#3b82f6" stroke-width="1.2" stroke-linecap="round"/>
		<path d="M16 14l-1 1" stroke="#3b82f6" stroke-width="1.2" stroke-linecap="round"/>
		<circle cx="20.5" cy="9.5" r="0.8" fill="#3b82f6"/>
	</g>

	<!-- Animated Signature Line -->
	<path class="signature-line" d="M8 14h0" stroke="#ef4444" stroke-width="1.5" stroke-linecap="round">
		<animate attributeName="d" values="M8 14h0; M8 14h8" dur="1.5s" fill="freeze"/>
	</path>

	<!-- Verification Badge -->
	<circle cx="19" cy="7" r="2" fill="#22c55e" opacity="0" class="verified-badge">
		<animate attributeName="opacity" values="0;1" dur="0.5s" begin="1.5s" fill="freeze"/>
	</circle>
	<path d="M18 7l1.5 1.5 2-2" stroke="white" stroke-width="1.2" stroke-linecap="round" opacity="0" class="verified-check">
		<animate attributeName="opacity" values="0;1" dur="0.5s" begin="1.5s" fill="freeze"/>
	</path>
</svg>